<svg xmlns="http://www.w3.org/2000/svg" viewBox="0 0 1146.34 572.52"><defs><style>.cls-1{fill:#fff;}</style></defs><g id="图层_2" data-name="图层 2"><g id="图层_1-2" data-name="图层 1"><path d="M559.06,243.67a37.28,37.28,0,0,0-1.19-4.66c-4.59-10.69-9.18-21.37-13.87-32q-13.28-30.12-26.62-60.19c-1.86-4.23-1-5.45,3.56-5.45,13.17,0,26.34-.19,39.5.13,4.15.11,5.16-1.42,5.33-5.1a120.17,120.17,0,0,1,1.54-13.89c1.48-8.9,1.59-8.81-7.09-8.75q-45,.31-90,.52a53.39,53.39,0,0,1-6.25-.74,49.77,49.77,0,0,1,2.33-4.59c7.48-11.38,15.14-22.65,22.45-34.15,2.43-3.81,5.23-5.19,9.75-5.11,18,.3,36,.17,54,.28,3,0,5.16-.31,5.63-4,.91-6.91,2-13.8,3.28-20.67C562,42,561,41,557.56,41q-70.74.3-141.49.36c-14.33,0-28.66,0-43-.17-3.92-.06-5.61,1-5.82,5.29a131.18,131.18,0,0,1-2.41,18.26c-.77,4,.63,4.88,4.37,4.84,19.16-.18,38.33-.16,57.49-.19,1.75,0,3.49.22,5.63.36-.42,1.56-.45,2.63-.95,3.38-8.57,12.65-17.1,25.35-26,37.8-1.16,1.64-4.11,2.82-6.23,2.83-19.16,0-38.32-.16-57.48-.43-2.84,0-4.32.62-4.62,3.7-.64,6.62-1.36,13.25-2.45,19.8-.61,3.72.6,4.8,4.14,4.73,13-.26,26-.36,39-.51,1.93,0,3.86,0,5.79,0l1,1.34L315.92,244.06h6.59c15.33,0,30.67-.47,46,.05,5.75.2,8.81-2,11.7-6.31,20-29.87,40.36-59.47,59.87-89.64,4.35-6.73,9.5-6.75,15.62-6.23,1.25.11,2.82,1.7,3.44,3q4.75,9.86,9.07,19.92c10.58,24.58,21.21,49.14,31.51,73.83,1.63,3.92,3.87,4.65,7.55,4.65,15.17,0,30.33.22,45.5.35C554.54,243.69,556.34,243.67,559.06,243.67Z"/><path d="M1016.91,194.81c3-2.7,5.17-4.72,7.38-6.7q22.51-20.15,45.07-40.28a16,16,0,0,0,5.71-10.59c1.51-12.89,3.11-25.79,5.48-38.53.94-5.07-.18-6-4.86-6-24.16.17-48.33.11-72.49.09-2.23,0-4.46-.34-7.52-.58,1.78-4,3.19-7.15,4.65-10.4a9.9,9.9,0,0,0-2.09-.72c-14.65-.13-29.31-.27-44-.25a4.33,4.33,0,0,0-3.13,1.89c-5.59,9.78-11,19.64-16.48,29.5-4.57,8.27-9.16,16.53-13.56,24.89-2.29,4.34-1,6,3.84,6,11.67-.08,23.34-.21,35,0a8.93,8.93,0,0,0,8.34-4.29c3-4.57,6.39-9,8.79-13.91,1.7-3.46,3.74-4.37,7.33-4.35,14.66.09,29.32-.11,44-.17,1.55,0,3.11.26,4.7.41a15.87,15.87,0,0,1,0,2.58c-2,9.67-10.43,14.18-16.53,20.54-.44.45-2.94-.19-3.58-1-1-1.22-1.2-3-1.56-4.66-2.49-11.09-2.54-10.43-13.73-11.41-10.74-.94-18.68,1.21-21.81,12.62-.12.45-.82.83-.8,1.22.1,1.66-.22,3.81.68,4.87,3.1,3.67,6.78,6.84,10,10.42,5.25,5.81,5.26,5.86,11.66,1.2,4.21-3.06,8.5-6,12.75-9l1,1.22a48.46,48.46,0,0,1-3.44,4c-5,4.66-10.16,9.08-15,13.91-2.57,2.59-4.32,2.94-6.93.14-5.22-5.6-10.6-11.07-16.17-16.33a10.1,10.1,0,0,0-6.06-2.78c-14-.21-28-.1-42,0a4.11,4.11,0,0,0-3.14,1.69c-2.42,5-.45,12.8,3.78,16.49,10.54,9.2,21,18.47,31.56,27.67,2.46,2.15,3.1,3.95.14,6.39-11.16,9.19-22.21,18.51-33.24,27.84-5,4.22-9.88,8.59-14.81,12.89l.45,1.29a41.92,41.92,0,0,0,5.08.62c10,0,20.09-.91,30,.12,12.86,1.33,23-2.81,31.79-11.71,2.91-2.94,6.51-5.21,9.39-8.18,2.19-2.25,3.59-2,5.8-.12,6.52,5.68,13.07,11.37,20,16.6a16.16,16.16,0,0,0,8.84,3.29c17.32.29,34.66.12,52,.08,1.53,0,3.06-.16,4.6-.24l.51-1.36Z"/><path d="M822,269.64c0,.82-.12,1.21,0,1.44a5.28,5.28,0,0,0,1.23,1.53c6.86,5.06,8.16,11.68,6.73,19.82-1.95,11.12-3.28,22.38-4.27,33.63-.37,4.15-2,5-5.56,4.92-9.32-.14-18.66-.22-28,0-1.6.05-4.36,1.68-4.54,2.88-1.18,7.88-1.61,15.87-2.68,23.78-.48,3.58.92,4.36,4,4.37,8.67,0,17.33.39,26,.3,4.25,0,5.9,1,5.24,5.73-3.25,23.21-6.4,46.43-9.06,69.71-.62,5.42-2.7,6.35-7.5,6.23-11.82-.29-23.65,0-35.48-.09-3.6,0-5.68,1.34-6.1,5-.81,7.26-1.61,14.52-2.51,21.77-.65,5.2,0,5.84,5,5.83q67.71-.14,135.44,0c3.75,0,4.93-.84,5.24-4.5a221.68,221.68,0,0,1,2.79-22.25c.87-4.56-.15-6-4.8-5.87-11.33.29-22.66.08-34,.29-4.2.07-5.29-1.31-4.11-5.38.91-3.16,1-6.56,1.42-9.86,2.59-20,5.47-39.89,7.61-59.9.79-7.31.89-6.81,7.72-6.83,8.33,0,16.66.14,25-.13,1.44-.05,3.87-1.61,4.09-2.79,1.45-7.84,2.34-15.77,3.57-23.65.56-3.64-.5-5.18-4.43-5.05-8.32.28-16.65.21-25,.29-6.41.07-6.6-.18-5.74-6.41,2.28-16.48,4.47-33,6.82-49.46.65-4.58-.87-6.22-5.6-6.15-18.15.23-36.31.13-54.47.21A31.69,31.69,0,0,0,822,269.64Z"/><path d="M491.34,269.16c1.86,2.54,2.92,4.18,4.17,5.66,1.93,2.28,3.1,13.21,1.27,15.48a4.81,4.81,0,0,1-3.42,1.28c-6.16,0-12.33-.08-18.46-.54-3.18-.23-4.22,1.07-4.45,3.84-.43,5.32-.94,10.62-1.34,15.94-.68,8.87-.65,8.9,8.05,9.24,2.46.09,4.4.37,3.63,3.65-2.4,10.18-4.67,20.39-7.11,30.56-3.76,15.67-7.64,31.31-11.42,47-3.58,14.86-7,29.74-10.68,44.58-2.46,10-5.19,19.94-7.66,29.94-.54,2.18-1.25,5.1,2.56,5.07,10.49-.09,21-.24,31.45-.72,1.36-.07,3.42-2.05,3.79-3.49,3.18-12.37,6-24.81,9-37.24q5.12-21.58,10.19-43.19c1.75-7.44,3.45-14.89,5.24-22.32.76-3.16,5.22-5.28,8.91-3.69,1,.44,1.33,3.42,1.28,5.21a98.86,98.86,0,0,1-1.06,10.42c-2.46,18.46-4.81,36.93-7.49,55.36-1.44,9.95-2,20.24-10.4,27.79-3.22,2.9-5.56,6.76-8.82,10.85a39.91,39.91,0,0,0,4.83.83c8.5.16,17,.34,25.49.32,8.25,0,20.08-10,21.41-18.14,1.22-7.53,2-15.13,3-22.7,1.89-15.18,3.74-30.36,5.64-45.54,1.93-15.35,3.92-30.68,5.85-46,.81-6.53.76-6.53-6-6.48-9.83.08-19.66,0-29.49.29-4.61.16-5.5-1.77-4.52-5.7.89-3.55,2-7.09,2.39-10.7.46-4.68,2.82-6.27,7.23-6.22,10.49.13,21,0,31.48.16,2.89,0,4.31-.85,4.63-3.77.8-7.11,1.69-14.22,2.63-21.31.46-3.41-1.14-4.5-4.26-4.39-5,.18-10,0-15,.44s-5.85-1.6-5.13-5.81c.62-3.6.83-7.27,1.44-10.88.59-3.45-.64-5-4.16-5C521.55,269.17,507.07,269.16,491.34,269.16Z"/><path d="M664.83,410.23l1.06,1.76c7.94,0,15.88.08,23.83,0,3.23-.05,4.51.93,3.95,4.41-3.23,20.19-6.29,40.41-9.46,60.61-.49,3.08.11,4.7,3.75,4.6,13.49-.35,27-.54,40.49-.66,2.73,0,3.86-1.08,4.14-3.75.85-7.78,1.85-15.53,2.81-23.3,1.49-12.14,3-24.27,4.66-37.83L763,436.51l1.43-.74c.39-2.91.84-5.81,1.16-8.72,1.2-10.73,2.46-21.46,3.39-32.21a7.64,7.64,0,0,0-2.17-5.13c-5.4-5.66-11-11.15-16.65-16.55-2.2-2.1-2.56-3.73-.58-6.33,6-7.81,11.9-15.65,17.26-23.85a35.3,35.3,0,0,0,4.72-12.27c1.33-6.67,1.73-13.52,2.56-20.3.6-4.83-.42-6.07-5.16-6.08q-40,0-80,0c-5.71,0-7.32,1.45-8,7.22-.6,4.79-.64,9.69-1.72,14.36-1,4.44.71,5.22,4.49,5.19,12.33-.11,24.67-.08,37,0,1.87,0,3.74.38,6.76.72C705.82,358.36,684.23,383.45,664.83,410.23Z"/><path d="M844.05,157.6,863.1,150c-.1,2.08-.08,3-.21,4q-3.51,26.2-7.06,52.39c-1.45,10.54-3,21.06-4.49,31.61-.34,2.47-.91,5.39,3,5.39,13.83,0,27.66,0,41.48-.34,1.45,0,3.88-2.24,4.1-3.7q4-27.14,7.46-54.34c2-15.86,3.29-31.8,5.49-47.62,2.15-15.44,5.37-30.74,7.56-46.18,2-13.86,1.2-14.5-12.08-9.24-17.56,7-34.82,14.68-52.3,21.83-4.51,1.84-6,4.92-6.54,9.42-1.32,11.39-3,22.75-4.47,34.13C844.68,150.4,844.46,153.48,844.05,157.6Z"/><path d="M553.41,480.41c1.32.48,2.19,1.07,3.07,1.08,12.15.14,24.32.41,36.47.19,7.9-.15,19.67-11.09,20.73-18.92,2-14.8,3.94-29.62,5.62-44.47.44-3.87,2.22-5.25,5.77-5.23,5.83,0,11.67-.18,17.49.08,3.4.15,4.92-1.23,5.31-4.39.75-5.94,1.38-11.9,2.34-17.8.64-3.89-.37-5-4.44-4.42-6.42.87-12.94,1-19.41,1.52-3.59.29-4.09-1.75-3.09-4.35a15.85,15.85,0,0,1,3.29-4.92c4.66-5,9.31-10,14.29-14.59,3.71-3.43,6.14-7,6.15-12.34a49.09,49.09,0,0,1,2.08-13.77c1.29-4.35-.1-5.34-4.06-5.33q-36.22,0-72.46-.13c-3.14,0-4.58,1.12-4.87,4.19-.49,5.3-1,10.61-1.78,15.86-.62,4,.58,5.35,4.71,5.21,8-.27,16-.15,24,.06,2.7.07,5.37.9,8.06,1.38-1.67,2.26-3.1,4.75-5,6.72-5.35,5.39-11.76,9.95-11.5,18.86.09,3.05-2.24,4-5.17,4-6.83.06-13.67.15-20.47.69-1.67.13-4.37,1.82-4.6,3.13-1.21,7-1.79,14.08-2.62,21.43,1.3.07,2.42.2,3.54.19,6.83-.08,13.66-.15,20.49-.32,2.73-.07,4.18.92,3.81,3.78-1.07,8.25-2.23,16.48-3.23,24.73C576.72,452,574,460.51,566.28,467,561.66,470.83,557.89,475.67,553.41,480.41Z"/><path d="M299.86,207.19H224.67q-81.21,0-162.42-.12c-2.48,0-4.06.46-4.48,3.35-1.18,8.19-2.66,16.35-3.89,24.54-.36,2.4.11,4.13,3.43,3.95,6.14-.34,12.3-.25,18.46-.25q104.7.08,209.39.17c9.91,0,10,.13,11.61-9.42C298,222.09,298.83,214.7,299.86,207.19Z"/><path d="M696.61,238.22v.35c9.33,0,18.66,0,28,0,28.82.07,57.63.21,86.44.1,2,0,5.44-1.63,5.68-3,1.5-8.16,2.26-16.45,3.28-24.69.41-3.28-.89-4.36-4.26-4.24-7.81.3-15.65.21-23.47.22q-103.68,0-207.34,0c-2.92,0-3.67,1.24-4,3.8q-1.23,10.65-2.82,21.24c-.93,6.14-1,6.15,5.06,6.15Z"/><path d="M938.53,33.09a67.29,67.29,0,0,1,4,5.72c1.29,2.35,2.29,4.86,3.42,7.3-2.53.46-5.06,1.31-7.59,1.31q-39,.07-78-.09c-2.68,0-4.89,0-5.24,3.66-.64,6.78-1.56,13.54-2.52,20.29-.5,3.54.78,4.67,4.35,4.64q64-.57,127.93-.9c33.31-.12,66.63,0,99.94.17,4.18,0,5.93-1.19,6.07-5.62a151.26,151.26,0,0,1,1.88-17.86c.54-3.54-.32-4.71-4.08-4.67-26,.27-52,.35-78,.45-7.46,0-7.84-.54-5.67-7.67,1.71-5.6.77-6.84-5.07-6.9q-28.74-.27-57.46-.57A25.71,25.71,0,0,0,938.53,33.09Z"/><path d="M311.23,43.45a33.76,33.76,0,0,0-3.84-.39c-27.65.16-55.3.44-82.95.54q-60.7.19-121.43.07c-5.11,0-6.42,1.64-6.66,6.53a119.83,119.83,0,0,1-2.93,19.64c-.81,3.7.08,5,3.66,5,1.33,0,2.67,0,4,0H297.47c2.33,0,4.77.43,7-.14,1.46-.38,3.5-2,3.68-3.34C309.36,62.35,310.19,53.28,311.23,43.45Z"/><path d="M614.06,74.85h6.21q57.74-.1,115.48-.2c29.16,0,58.32.12,87.48.24,2.71,0,4.8,0,5.13-3.66.69-7.6,1.66-15.19,2.85-22.74.69-4.35-.85-5.57-5.06-5.46-13.65.37-27.32.61-41,.61-54.49,0-109-.11-163.47,0-1.35,0-3.69,1.8-3.89,3C616.37,55.63,615.35,64.69,614.06,74.85Z"/><path d="M194.25,121.13v.11h-90c-2.16,0-4.48-.37-6.44.28-1.47.48-3.29,2.18-3.55,3.59-1,5.22-1.42,10.55-2,15.84-1.22,11.61-1.19,11.51,10.64,11.49q89.73-.15,179.45-.11c4.39,0,6.18-1,6.48-5.7a154.79,154.79,0,0,1,2.83-19.72c1-5.22.88-5.77-4.48-5.78Z"/><path d="M713.62,121v.29q-46.2,0-92.41,0c-3.11,0-5.45.15-5.77,4.24-.53,6.77-1.47,13.51-2.44,20.24s-1,6.6,5.89,6.59q47.21,0,94.41-.06c29.13,0,58.27-.18,87.41,0,4.63,0,6.87-.89,7.16-6.1a157.68,157.68,0,0,1,2.8-20.23c.71-3.79-.14-5-4.14-5C775.56,121.08,744.59,121,713.62,121Z"/><path d="M1052.74,280.61l-.28,0c.12-1.83.69-3.78.23-5.45-.36-1.35-2-3.35-3-3.37q-22.47-.35-45-.06c-1.3,0-3.54,1.68-3.73,2.85-1.73,10.49-3.35,21-4.51,31.57-.91,8.4-.62,8.23-8.85,8.8-4.66.33-6-1.48-5.3-5.76,1.23-7.88,2.31-15.79,3.48-23.68,2.27-15.43,1.9-15.81-13.8-13.93-.33,0-.79-.05-1,.14-1.16,1.13-3,2.19-3.24,3.54-.79,4-.91,8.21-1.41,12.32-1.56,12.87-3.09,25.74-4.79,38.59-.68,5.14-.26,5.87,4.93,5.88,12.66.05,25.33-.25,38,.24,5.31.21,7.09-1.95,7.72-6.57,1.18-8.74,2.53-17.45,3.79-26.18,1.46-10.06,1.78-10.34,12-9.76a11.45,11.45,0,0,1,3.92.52,3.25,3.25,0,0,1,1.65,2.49c-.63,6.07-1.43,12.12-2.34,18.15a6.29,6.29,0,0,1-1.67,3.35c-4.57,4.51-2.68,10.3-2.66,15.51,0,.74,5.63,1.64,8.71,2.15a60.85,60.85,0,0,0,6.49.2c2.88.16,4.11-1.09,4.47-4C1048.53,312.27,1050.66,296.44,1052.74,280.61Z"/><path d="M964.44,448.47c1.4-11.7,2.55-22.59,4-33.43,1-7,.6-7.76-5.8-7.94-2.33-.07-4.68,0-7-.2-4-.4-5.39,1.14-5.82,5.24-1.76,16.52-3.74,33-6.16,49.45-.64,4.37.47,5.28,4.38,5.27q20.48-.09,40.95.16c3.23,0,4.38-1.42,4.78-4.37q2.25-16.8,4.79-33.57c.2-1.25,1.27-3.36,2-3.39A130.7,130.7,0,0,1,1014,426c.52,0,1.42,1.21,1.36,1.78-.63,6.28.46,13.77-2.64,18.48-3.71,5.63-2.94,11.24-4.28,16.8-.64,2.64.66,4.1,3.48,4.11,4.16,0,8.32.1,12.48.16,2.9,0,4.11-1.55,4.45-4.28,2-16.5,4.1-33,6.29-49.49.56-4.2-.52-6.12-5.14-6.08q-20.47.18-40.95-.22c-4.22-.08-5.8,1.46-6.26,5.66-1.18,10.72-2.92,21.37-4.24,32.08-.37,3-1.67,4.11-4.52,3.93S968.15,448.65,964.44,448.47Z"/><path d="M560.26,327.63a16.24,16.24,0,0,0,2.62.34c9.48-.31,19-1.13,28.42-.83,5.77.18,8.76-2.06,10.09-7.13,1.1-4.17,3.6-5.2,7.73-5.13,14.3.26,28.62.05,42.93.2,3.2,0,4.37-1,4.63-4.23A150.59,150.59,0,0,1,658.84,294c.84-4.32-.88-5.23-4.7-5.19-11.49.13-23-.13-34.45.11-4.57.1-5.24-1.76-3.86-5.4,1.18-3.09,2.42-6.15,3.75-9.18,2-4.59,1.44-5.65-3.52-5.65-8.66,0-17.31.23-26,.23-4.85,0-10.47-1.3-9.24,6.85.07.41-.39.9-.57,1.36C573.69,293.78,567.09,310.4,560.26,327.63Z"/><path d="M47.09,556c-.59,4.27-1.4,9.5-1.88,14.77-.05.51,1.92,1.74,3,1.74q28.74,0,57.49-.2c5,0,8.06-3.18,8.91-8.36,1.4-8.54,2.72-17.09,4.25-25.6.74-4.14-1-5.39-4.86-5.33q-13.48.22-27,.15c-13.5-.06-13.62-.13-10.44-13.32a6.68,6.68,0,0,1,4.44-4c3.72-.69,7.65-.14,11.45-.53,4.91-.51,8.49,0,6.38,7.06,7,0,13.45.14,19.88-.15,1-.05,2.59-1.93,2.88-3.19.84-3.72.9-7.62,1.77-11.33.77-3.34-.61-4.26-3.5-4.26-20.33,0-40.66,0-61,.27-1.26,0-3.24,2.05-3.6,3.47-.93,3.68-1.14,7.54-1.65,11.33-1.12,8.35-2.25,16.7-3.54,26.2H94.73a65,65,0,0,0-1.18,7.47c-.14,4.81-2.56,6-7.09,5.82-8.81-.37-17.66,0-26.49-.31C56.17,557.58,52.38,556.72,47.09,556Z"/><path d="M579.93,522.39c4.07,0,7.51,0,10.94,0,10.46.1,10.45.11,11.93-10.07a15.07,15.07,0,0,1,.82-3.4c1.74-4.37-.11-5.61-4.32-5.6q-29.24,0-58.48-.18c-2.77,0-4.23.75-4.59,3.83-1.28,10.89-2.68,21.78-4.34,32.62-.56,3.69.61,4.81,4.09,4.79,9.67-.06,19.33.08,29,.08,10.77,0,10.86,0,8,10.59-.34,1.25-2.37,3-3.54,2.92-13.32-.66-26.82,1.55-40.51-2.53-.61,4.32-1.15,8.57-1.83,12.79-.56,3.45.95,4.28,4.19,4.23,18-.25,36-.3,54-.43,7.62,0,10.42-2.49,11.42-10.23,1-7.59,1.63-15.22,2.74-22.78.67-4.58-.68-6.36-5.48-6.25-11.16.26-22.33,0-33.49.23-4.67.11-5.37-2.12-4.75-5.87,1.8-11,1.8-11,12.82-11.23,2,0,4,0,6-.16C578.8,515.33,582,515.92,579.93,522.39Z"/><path d="M389.74,481.44c12.06,0,23.34.12,34.61-.17,1.27,0,3.14-2.23,3.61-3.76,3-9.86,5.57-19.84,8.48-29.73,4.36-14.82,8.75-29.63,13.4-44.37,1.31-4.13-.58-4.67-3.77-4.67-9.5,0-19,0-28.49-.08-2.91,0-4.41.95-5.29,3.95-6.71,22.78-13.64,45.49-20.41,68.26C391,474,390.58,477.22,389.74,481.44Z"/><path d="M129.12,268.41l-.08-1.82a61.21,61.21,0,0,0-7.08-.91q-44.49-.56-89-1c-3.5,0-4.83-1.32-4.16-4.89,1-5.39,1.87-10.82,2.56-16.27q3.47-27.45,6.74-54.95c.22-1.84,0-3.73,0-6.94a15.84,15.84,0,0,0-1.95,2.55c-4.5,12.66-9.06,25.3-13.41,38Q11.42,255.46.31,288.75c-.37,1.13-.5,2.91.13,3.64s2.36.41,3.55.18c7-1.33,14-2.87,21-4.15,12.44-2.28,24.92-4.33,37.35-6.64q30.16-5.59,60.3-11.41A66,66,0,0,0,129.12,268.41Z"/><path d="M1109.48,106.67l1.34.24a13.61,13.61,0,0,0,1.43-2.39c4-11.44,8-22.86,11.82-34.35,4.62-13.87,9-27.8,13.6-41.69,2.65-8,5.47-16,8.13-24C1146.62,2,1147-.42,1143,.06c-18,2.15-36,4.08-54,6.5-18.28,2.46-36.49,5.4-54.73,8.16-3.48.53-6.94,1.21-10.41,1.83,0,.54,0,1.09,0,1.63a22,22,0,0,0,4.46,1.26q28.37,2.23,56.76,4.3c9,.64,17.94,1,26.91,1.62,2.58.16,5,.43,4.57,4.26-2.11,20.85-4.06,41.72-6,62.58C1110.12,97,1109.84,101.85,1109.48,106.67Z"/><path d="M202.79,521.87c0,3.74.34,6.61-.06,9.38C201,543.4,199,555.53,197,567.66c-.47,3,.62,4.43,3.7,4.4,4.66,0,9.32-.14,14,.06,3.73.15,5.09-1.26,5.66-5.06,1.57-10.5,3.65-20.93,5.69-31.35.64-3.24,5.06-4.88,9.83-3.28,1.08.36,2,3.28,1.86,4.9Q236.17,552.21,234,567c-.57,3.88.76,5.21,4.48,5a84.44,84.44,0,0,1,11.47,0c5.3.51,6.84-2,7.4-6.83,1.45-12.53,3.24-25,5.18-37.49,1-6.27,1.11-6.55-5.32-6.56-16.63,0-33.27,0-49.91.14A27.32,27.32,0,0,0,202.79,521.87Z"/><path d="M681.57,521.83c.93,2.37,2.42,4.24,2.18,5.86-2,13.12-4.13,26.21-6.44,39.27-.73,4.17.85,5.45,4.77,5.23a87,87,0,0,1,12-.15c4.59.37,6.46-1.13,7-5.92.93-8.92,2.46-17.79,4.06-26.61,1.41-7.75,3.45-9.07,11-7.56,1,.21,2.59,2.1,2.5,3.08-.78,8.61-1.51,17.24-3,25.75-1.94,11.29-2.21,11.24,9.15,11.15,11.2-.09,11.3-.08,13.06-10.91,1.86-11.46,3.43-23,5.29-34.44.71-4.36-1.15-5.57-5.17-5.55-17,.11-34,0-50.93.08A41.55,41.55,0,0,0,681.57,521.83Z"/><path d="M460.27,522c.39,2.5,1.13,4.32.87,6-2.06,13.28-4.31,26.53-6.5,39.79-.48,2.87.36,4.4,3.67,4.25,4.82-.22,9.66-.28,14.48-.07,3.86.16,5-1.46,5.52-5.17,1.48-10.37,3.4-20.68,5.39-31,1.19-6.11,6.35-3.46,9.84-3.65,3.73-.21,2.67,3,2.42,5.19-1.14,10.09-2.29,20.17-3.67,30.23-.45,3.27.36,4.76,3.79,4.56q7.23-.42,14.47-.66c2.81-.09,4-1.31,4.37-4.22,1.78-13,3.86-26,5.76-39,.92-6.34.18-7.31-6.47-7.31-16.32,0-32.63.23-49,.41A44.35,44.35,0,0,0,460.27,522Z"/><path d="M1026.75,474.47c-3.47.92-6,1.21-8.15,2.23-10.79,5.08-21.61,10.12-32.19,15.61a55.1,55.1,0,0,1-31.12,6.46,59.67,59.67,0,0,0-12.95.31,6.07,6.07,0,0,0-4.26,3.47c-1,3.64-1,7.56-1.61,11.32-.54,3.23.42,4.61,3.85,4.55,8.16-.14,16.34-.39,24.47.13a27.79,27.79,0,0,1,11.65,3.39c12.7,7.22,25.13,14.93,37.64,22.48,2.48,1.5,4.23,1.87,4.81-1.87,2.39-15.37,2.43-15.37-11.27-22.59-1.17-.62-2.44-1.06-3.62-1.67-5-2.63-10-5.3-16.25-8.62,3.22-1.56,4.78-2.43,6.42-3.1,8.92-3.61,17.9-7.06,26.74-10.86,1.71-.74,3.79-2.59,4.09-4.23C1026,486.31,1026.15,481,1026.75,474.47Z"/><path d="M1021.19,379c-.49,3.31-.91,5.88-1.26,8.45-1.76,13.15-.94,14,12.36,13.34h.5c2.78-.07,4-1.34,4.37-4.26,1.66-14.52,3.38-29,5.38-43.49s1.33-15.43-13.37-13.26c-.49.08-1.16,0-1.44.28-.93.92-2.25,1.88-2.45,3a104.23,104.23,0,0,0-1.44,12.32c-.2,3.79-1.77,5.13-5.62,5.08-16.32-.21-32.64-.12-49-.19-11.91-.06-11.91-.1-13.41,11.58a4.38,4.38,0,0,1-.2,1.48c-3,5.58.62,5.6,4.59,5.6,18.32,0,36.63,0,55,.08Z"/><path d="M749.29,504.23c.6,1.41.84,2.17,1.23,2.85,5.66,9.61,11.51,19.11,16.9,28.87,1.78,3.22,3.5,7.13,3.33,10.62-.35,6.93-1.89,13.81-3.22,20.65-.73,3.7.69,4.88,4.12,4.82,4.66-.07,9.33-.09,14,.07,3.45.11,5.16-1.23,5.55-4.79.77-7,1.73-13.89,2.9-20.78a11.66,11.66,0,0,1,2.59-5.64c9.73-10.92,19.64-21.68,29.46-32.51.91-1,1.6-2.2,2.9-4-8.94,0-16.81-.07-24.68.11-.74,0-1.51,1.53-2.16,2.43C797,514.1,791.79,521.3,786,529.3c-1.37-2.54-2.36-4.19-3.19-5.91-2.38-4.95-4.58-10-7.12-14.86-.86-1.66-2.48-4-3.87-4.11C764.58,504,757.3,504.23,749.29,504.23Z"/><path d="M306.9,504v-.35c-9.49,0-19-.08-28.48,0-9.72.1-8.31-.3-9.57,8-.58,3.82.9,4.36,3.89,4.36q7.74,0,15.49.1c6,.08,6.55.52,5.7,6.23-2.27,15.28-4.58,30.56-7.17,45.78-.52,3.06.23,4.09,3,4,5.66-.1,11.34-.07,17-.54,1.39-.11,3.55-1.73,3.81-3,1.5-7.15,2.65-14.38,3.68-21.62,1.27-8.88,2.42-17.79,3.36-26.71.36-3.41,1.91-4.55,5.15-4.52,5.49,0,11-.25,16.48-.21,5.92,0,4.63-4.44,5.07-7.81.54-4-2.55-3.68-4.93-3.7C328.55,503.94,317.73,504,306.9,504Z"/><path d="M435.07,387.28v-.09c4.66,0,9.35-.31,14,.09,4.41.38,5.48-1.48,5.18-5.42Q452.67,361,451.34,340c-.23-3.54-2.33-4.35-5.4-4.35-9.66,0-19.32.07-29-.15-4.2-.1-5,1.7-4.65,5.49,1.3,14.07,2.41,28.17,3.43,42.26.22,3,1.43,4.12,4.34,4.05C425.07,387.19,430.07,387.28,435.07,387.28Z"/><path d="M439.63,274.42v-.12h-16c-3.23,0-4.25,1.42-3.93,4.72,1.26,13.22,2.39,26.46,3.29,39.71.25,3.65,1.62,5,5.16,5,10-.11,20-.16,29.94,0,3.35,0,4.48-1.25,4.13-4.47-.68-6.27-1.35-12.55-1.77-18.84-.47-7.13-.75-14.28-1-21.42-.1-3.37-1.52-4.72-4.93-4.59C449.62,274.57,444.62,274.42,439.63,274.42Z"/><path d="M707.58,268.27c2.28,9.09,4.6,16.93,6.11,24.93.72,3.81,2.3,5,5.85,5,11.46-.05,22.93.07,34.39.06a19.47,19.47,0,0,0,3.73-.76c-1.22-6.34-2.47-12.15-3.44-18-2.24-13.45-1.69-10.87-13.33-11.14C729.64,268.07,718.38,268.27,707.58,268.27Z"/><path d="M355.52,521.76l.17,1.54c-.19,2.93-.19,5.88-.59,8.77-1.69,12-3.41,24-5.3,36-.48,3,.72,4,3.4,4,4.66-.07,9.32-.31,14-.26,3.4,0,4.87-1.06,5.39-4.78,1.91-13.81,4.37-27.55,6.39-41.35.17-1.16-1.37-3.67-2.2-3.71C369.68,521.64,362.6,521.76,355.52,521.76Z"/><path d="M368.16,517c11.31-.08,11.24-.1,13.29-8.43.76-3.08-.25-4.43-3.32-4.44-4.8,0-9.61.08-14.41,0-2.91-.08-4,1.2-4.48,4-1.4,9-1.49,9,7.92,8.92Z"/><path class="cls-1" d="M129.69,477.25l50.95-47.42a52.51,52.51,0,0,0-5.83-.68c-11.5.1-23,.19-34.48.49-2.88.08-4-.66-3.61-3.63.89-6.43,1.68-12.87,2.43-19.32.37-3.26,2.59-3.33,5.09-3.31q41,.4,82,.73c3.11,0,6.17-.06,7-4,.69-3.49.08-5.94-4.28-5.93-6.66,0-13.33-.22-20-.22-16,0-32,.07-48,.08-5.37,0-5.76-.67-4.71-5.77,1.11-5.36,2.14-10.76,2.78-16.2q3.36-28.47,6.39-57c.44-4.22,3.17-4,6.07-4l64,.27c6.47,0,6.44-.07,6.83-6.73.36-6.32.64-12.66,1.57-18.91.81-5.4-.72-9.37-5-12.56a32.34,32.34,0,0,1-3.75-4.05,22.43,22.43,0,0,1,3.74-.72q27.48.11,55,.3c6.71,0,7.16.32,6.26,6.71-.62,4.35.72,5.37,5,5.33,27.49-.28,55-.22,82.47-.42,2.84,0,3.61,1,3.37,3.49-.53,5.29-.81,10.63-1.84,15.82-.25,1.26-3,2.85-4.61,2.87-20.5.21-41,.15-61.49.17-7.5,0-15,.08-22.5,0-3.38,0-5.49,1.18-5.54,4.82,0,4,2.94,3.29,5.33,3.3q36,0,72-.05c6.27,0,6.46,0,5.75,6-2.5,21.12-5.15,42.23-7.72,63.35-.32,2.64-.53,5.3-.67,8-.22,4.08-2.09,5.72-6.36,5.67-16.83-.16-33.66-.05-50.49,0-6.16,0-12.34.57-18.49.31-5.05-.2-5.76,2.58-5.84,6.52-.1,4.52,3.21,3.42,5.63,3.42,25.83,0,51.66-.07,77.49-.35,4.7-.05,6.33,1,5.16,5.94a93.64,93.64,0,0,0-2.08,15.31c-.26,3.91-2.29,4.51-5.57,4.48-9.16-.1-18.33,0-27.5.08-2.06,0-4.13.41-7.39.76l40.48,46.28c-3.42.37-5.46.77-7.51.79-13,.14-26,0-39,.4-5,.15-8.39-1.73-11.54-5.39-9.25-10.7-18.77-21.19-28.12-31.82a22.18,22.18,0,0,1-2.25-3.89l-2,1a36.56,36.56,0,0,0-1.2,4.88c-1.26,11.57-2.49,23.16-3.59,34.75-.31,3.3-1.73,4.62-5.1,4.6q-23.73-.12-47.48.09c-4.15,0-3.6-2.48-3.23-5,1.64-11.35,3.34-22.69,5-34a52.64,52.64,0,0,0,0-5.8c-3.46,2.82-6.19,4.79-8.62,7.07-10.44,9.8-20.65,19.85-31.29,29.41a15.72,15.72,0,0,1-9.27,3.62c-14.32.5-28.65.44-43,.54C134.74,477.73,133,477.49,129.69,477.25ZM271.24,332.4v.41h-41c-3.33,0-6.67-.05-10,0-5.36,0-4,4.49-4.47,7.35-.55,3.41,2.35,2.9,4.44,2.9,4.84,0,9.67-.18,14.5-.17q42.75.06,85.5.15c4.36,0,6.36-2.23,6.49-6.85s-3.31-3.71-6-3.72C304.23,332.38,287.74,332.4,271.24,332.4ZM266.75,374v-.34h2c16.3.1,32.61,0,48.9.44,5.37.15,4.92-3.43,5.35-6.45.58-4-2.6-3.44-5-3.47-5.33-.06-10.65-.07-16-.08-28.28,0-56.56,0-84.84-.19-4.6,0-5.61,2.1-5.81,6-.23,4.45,2.49,4.11,5.49,4.1C233.48,374,250.12,374,266.75,374Z"/><path class="cls-1" d="M559.06,243.67c-2.72,0-4.52,0-6.31,0-15.17-.13-30.33-.35-45.5-.35-3.68,0-5.92-.73-7.55-4.65-10.3-24.69-20.93-49.25-31.51-73.83q-4.32-10.05-9.07-19.92c-.62-1.29-2.19-2.88-3.44-3-6.12-.52-11.27-.5-15.62,6.23-19.51,30.17-39.9,59.77-59.87,89.64-2.89,4.32-5.95,6.51-11.7,6.31-15.31-.52-30.65-.09-46-.05h-6.59l68.64-101.71-1-1.34c-1.93,0-3.86,0-5.79,0-13,.15-26,.25-39,.51-3.54.07-4.75-1-4.14-4.73,1.09-6.55,1.81-13.18,2.45-19.8.3-3.08,1.78-3.74,4.62-3.7,19.16.27,38.32.48,57.48.43,2.12,0,5.07-1.19,6.23-2.83,8.86-12.45,17.39-25.15,26-37.8.5-.75.53-1.82.95-3.38-2.14-.14-3.88-.36-5.63-.36-19.16,0-38.33,0-57.49.19-3.74,0-5.14-.79-4.37-4.84a131.18,131.18,0,0,0,2.41-18.26c.21-4.3,1.9-5.35,5.82-5.29,14.33.19,28.66.19,43,.17q70.74-.12,141.49-.36c3.45,0,4.44,1,3.85,4.36C560.18,52.19,559,59.08,558.13,66c-.47,3.66-2.67,4-5.63,4-18-.11-36,0-54-.28-4.52-.08-7.32,1.3-9.75,5.11-7.31,11.5-15,22.77-22.45,34.15a49.77,49.77,0,0,0-2.33,4.59,53.39,53.39,0,0,0,6.25.74q45-.21,90-.52c8.68-.06,8.57-.15,7.09,8.75a120.17,120.17,0,0,0-1.54,13.89c-.17,3.68-1.18,5.21-5.33,5.1-13.16-.32-26.33-.15-39.5-.13-4.59,0-5.42,1.22-3.56,5.45Q530.66,176.93,544,207c4.69,10.64,9.28,21.32,13.87,32A37.28,37.28,0,0,1,559.06,243.67Z"/><path class="cls-1" d="M1016.91,194.81l57.36,46.89-.51,1.36c-1.54.08-3.07.23-4.6.24-17.33,0-34.67.21-52-.08a16.16,16.16,0,0,1-8.84-3.29c-6.88-5.23-13.43-10.92-20-16.6-2.21-1.93-3.61-2.13-5.8.12-2.88,3-6.48,5.24-9.39,8.18-8.81,8.9-18.93,13-31.79,11.71-9.89-1-20-.1-30-.12a41.92,41.92,0,0,1-5.08-.62l-.45-1.29c4.93-4.3,9.81-8.67,14.81-12.89,11-9.33,22.08-18.65,33.24-27.84,3-2.44,2.32-4.24-.14-6.39-10.54-9.2-21-18.47-31.56-27.67C918,162.83,916,155,918.46,150a4.11,4.11,0,0,1,3.14-1.69c14-.14,28-.25,42,0a10.1,10.1,0,0,1,6.06,2.78c5.57,5.26,11,10.73,16.17,16.33,2.61,2.8,4.36,2.45,6.93-.14,4.79-4.83,10-9.25,15-13.91a48.46,48.46,0,0,0,3.44-4l-1-1.22c-4.25,3-8.54,6-12.75,9-6.4,4.66-6.41,4.61-11.66-1.2-3.22-3.58-6.9-6.75-10-10.42-.9-1.06-.58-3.21-.68-4.87,0-.39.68-.77.8-1.22,3.13-11.41,11.07-13.56,21.81-12.62,11.19,1,11.24.32,13.73,11.41.36,1.61.61,3.44,1.56,4.66.64.83,3.14,1.47,3.58,1,6.1-6.36,14.58-10.87,16.53-20.54a15.87,15.87,0,0,0,0-2.58c-1.59-.15-3.15-.41-4.7-.41-14.67.06-29.33.26-44,.17-3.59,0-5.63.89-7.33,4.35-2.4,4.9-5.75,9.34-8.79,13.91a8.93,8.93,0,0,1-8.34,4.29c-11.66-.22-23.33-.09-35,0-4.87,0-6.13-1.64-3.84-6,4.4-8.36,9-16.62,13.56-24.89,5.44-9.86,10.89-19.72,16.48-29.5a4.33,4.33,0,0,1,3.13-1.89c14.66,0,29.32.12,44,.25a9.9,9.9,0,0,1,2.09.72c-1.46,3.25-2.87,6.42-4.65,10.4,3.06.24,5.29.58,7.52.58,24.16,0,48.33.08,72.49-.09,4.68,0,5.8.92,4.86,6-2.37,12.74-4,25.64-5.48,38.53a16,16,0,0,1-5.71,10.59q-22.58,20.1-45.07,40.28C1022.08,190.09,1019.89,192.11,1016.91,194.81Z"/><path class="cls-1" d="M822,269.64a31.69,31.69,0,0,1,4.17-.55c18.16-.08,36.32,0,54.47-.21,4.73-.07,6.25,1.57,5.6,6.15-2.35,16.48-4.54,33-6.82,49.46-.86,6.23-.67,6.48,5.74,6.41,8.33-.08,16.66,0,25-.29,3.93-.13,5,1.41,4.43,5.05-1.23,7.88-2.12,15.81-3.57,23.65-.22,1.18-2.65,2.74-4.09,2.79-8.33.27-16.66.12-25,.13-6.83,0-6.93-.48-7.72,6.83-2.14,20-5,39.94-7.61,59.9-.43,3.3-.51,6.7-1.42,9.86-1.18,4.07-.09,5.45,4.11,5.38,11.33-.21,22.66,0,34-.29,4.65-.11,5.67,1.31,4.8,5.87A221.68,221.68,0,0,0,905.31,472c-.31,3.66-1.49,4.51-5.24,4.5q-67.73-.22-135.44,0c-5,0-5.68-.63-5-5.83.9-7.25,1.7-14.51,2.51-21.77.42-3.68,2.5-5.05,6.1-5,11.83.08,23.66-.2,35.48.09,4.8.12,6.88-.81,7.5-6.23,2.66-23.28,5.81-46.5,9.06-69.71.66-4.71-1-5.77-5.24-5.73-8.66.09-17.32-.26-26-.3-3.11,0-4.51-.79-4-4.37,1.07-7.91,1.5-15.9,2.68-23.78.18-1.2,2.94-2.83,4.54-2.88,9.32-.25,18.66-.17,28,0,3.58.06,5.19-.77,5.56-4.92,1-11.25,2.32-22.51,4.27-33.63,1.43-8.14.13-14.76-6.73-19.82a5.28,5.28,0,0,1-1.23-1.53C821.91,270.85,822,270.46,822,269.64Z"/><path class="cls-1" d="M491.34,269.16c15.73,0,30.21,0,44.68,0,3.52,0,4.75,1.59,4.16,5-.61,3.61-.82,7.28-1.44,10.88-.72,4.21.3,6.28,5.13,5.81s10-.26,15-.44c3.12-.11,4.72,1,4.26,4.39-.94,7.09-1.83,14.2-2.63,21.31-.32,2.92-1.74,3.81-4.63,3.77-10.49-.18-21,0-31.48-.16-4.41-.05-6.77,1.54-7.23,6.22-.35,3.61-1.5,7.15-2.39,10.7-1,3.93-.09,5.86,4.52,5.7,9.83-.32,19.66-.21,29.49-.29,6.73-.05,6.78-.05,6,6.48-1.93,15.35-3.92,30.68-5.85,46-1.9,15.18-3.75,30.36-5.64,45.54-1,7.57-1.73,15.17-3,22.7C539,471,527.13,480.93,518.88,481c-8.5,0-17-.16-25.49-.32a39.91,39.91,0,0,1-4.83-.83c3.26-4.09,5.6-7.95,8.82-10.85,8.36-7.55,9-17.84,10.4-27.79,2.68-18.43,5-36.9,7.49-55.36a98.86,98.86,0,0,0,1.06-10.42c0-1.79-.26-4.77-1.28-5.21-3.69-1.59-8.15.53-8.91,3.69-1.79,7.43-3.49,14.88-5.24,22.32q-5.08,21.6-10.19,43.19c-2.94,12.43-5.81,24.87-9,37.24-.37,1.44-2.43,3.42-3.79,3.49-10.47.48-21,.63-31.45.72-3.81,0-3.1-2.89-2.56-5.07,2.47-10,5.2-19.94,7.66-29.94,3.64-14.84,7.1-29.72,10.68-44.58,3.78-15.66,7.66-31.3,11.42-47,2.44-10.17,4.71-20.38,7.11-30.56.77-3.28-1.17-3.56-3.63-3.65-8.7-.34-8.73-.37-8.05-9.24.4-5.32.91-10.62,1.34-15.94.23-2.77,1.27-4.07,4.45-3.84,6.13.46,12.3.5,18.46.54a4.81,4.81,0,0,0,3.42-1.28c1.83-2.27.66-13.2-1.27-15.48C494.26,273.34,493.2,271.7,491.34,269.16Z"/><path class="cls-1" d="M664.83,410.23c19.4-26.78,41-51.87,62.61-78.48-3-.34-4.89-.72-6.76-.72-12.33,0-24.67-.08-37,0-3.78,0-5.52-.75-4.49-5.19,1.08-4.67,1.12-9.57,1.72-14.36.71-5.77,2.32-7.22,8-7.22q40,0,80,0c4.74,0,5.76,1.25,5.16,6.08-.83,6.78-1.23,13.63-2.56,20.3A35.3,35.3,0,0,1,766.81,343c-5.36,8.2-11.31,16-17.26,23.85-2,2.6-1.62,4.23.58,6.33,5.66,5.4,11.25,10.89,16.65,16.55a7.64,7.64,0,0,1,2.17,5.13c-.93,10.75-2.19,21.48-3.39,32.21-.32,2.91-.77,5.81-1.16,8.72l-1.43.74L740.06,416c-1.67,13.56-3.17,25.69-4.66,37.83-1,7.77-2,15.52-2.81,23.3-.28,2.67-1.41,3.73-4.14,3.75-13.5.12-27,.31-40.49.66-3.64.1-4.24-1.52-3.75-4.6,3.17-20.2,6.23-40.42,9.46-60.61.56-3.48-.72-4.46-3.95-4.41-8,.12-15.89,0-23.83,0Z"/><path class="cls-1" d="M844.05,157.6c.41-4.12.63-7.2,1-10.25,1.48-11.38,3.15-22.74,4.47-34.13.52-4.5,2-7.58,6.54-9.42,17.48-7.15,34.74-14.87,52.3-21.83,13.28-5.26,14.05-4.62,12.08,9.24-2.19,15.44-5.41,30.74-7.56,46.18-2.2,15.82-3.5,31.76-5.49,47.62Q904,212.22,900,239.35c-.22,1.46-2.65,3.66-4.1,3.7-13.82.34-27.65.33-41.48.34-4,0-3.38-2.92-3-5.39,1.46-10.55,3-21.07,4.49-31.61q3.58-26.19,7.06-52.39c.13-.94.11-1.9.21-4Z"/><path class="cls-1" d="M553.41,480.41c4.48-4.74,8.25-9.58,12.87-13.43,7.76-6.47,10.44-15,11.59-24.42,1-8.25,2.16-16.48,3.23-24.73.37-2.86-1.08-3.85-3.81-3.78-6.83.17-13.66.24-20.49.32-1.12,0-2.24-.12-3.54-.19.83-7.35,1.41-14.44,2.62-21.43.23-1.31,2.93-3,4.6-3.13,6.8-.54,13.64-.63,20.47-.69,2.93,0,5.26-1,5.17-4-.26-8.91,6.15-13.47,11.5-18.86,2-2,3.38-4.46,5-6.72-2.69-.48-5.36-1.31-8.06-1.38-8-.21-16-.33-24-.06-4.13.14-5.33-1.23-4.71-5.21.81-5.25,1.29-10.56,1.78-15.86.29-3.07,1.73-4.21,4.87-4.19q36.23.19,72.46.13c4,0,5.35,1,4.06,5.33A49.09,49.09,0,0,0,647,351.85c0,5.38-2.44,8.91-6.15,12.34-5,4.63-9.63,9.63-14.29,14.59a15.85,15.85,0,0,0-3.29,4.92c-1,2.6-.5,4.64,3.09,4.35,6.47-.52,13-.65,19.41-1.52,4.07-.56,5.08.53,4.44,4.42-1,5.9-1.59,11.86-2.34,17.8-.39,3.16-1.91,4.54-5.31,4.39-5.82-.26-11.66-.05-17.49-.08-3.55,0-5.33,1.36-5.77,5.23-1.68,14.85-3.61,29.67-5.62,44.47-1.06,7.83-12.83,18.77-20.73,18.92-12.15.22-24.32-.05-36.47-.19C555.6,481.48,554.73,480.89,553.41,480.41Z"/><path class="cls-1" d="M299.86,207.19c-1,7.51-1.87,14.9-3.09,22.22-1.58,9.55-1.7,9.44-11.61,9.42q-104.69-.12-209.39-.17c-6.16,0-12.32-.09-18.46.25-3.32.18-3.79-1.55-3.43-3.95,1.23-8.19,2.71-16.35,3.89-24.54.42-2.89,2-3.35,4.48-3.35q81.21.1,162.42.12Z"/><path class="cls-1" d="M696.61,238.22H583.2c-6.11,0-6,0-5.06-6.15q1.61-10.59,2.82-21.24c.29-2.56,1-3.8,4-3.8q103.67.07,207.34,0c7.82,0,15.66.08,23.47-.22,3.37-.12,4.67,1,4.26,4.24-1,8.24-1.78,16.53-3.28,24.69-.24,1.33-3.7,2.95-5.68,3-28.81.11-57.62,0-86.44-.1-9.32,0-18.65,0-28,0Z"/><path class="cls-1" d="M938.53,33.09a25.71,25.71,0,0,1,4-.74q28.73.26,57.46.57c5.84.06,6.78,1.3,5.07,6.9-2.17,7.13-1.79,7.7,5.67,7.67,26-.1,52-.18,78-.45,3.76,0,4.62,1.13,4.08,4.67a151.26,151.26,0,0,0-1.88,17.86c-.14,4.43-1.89,5.64-6.07,5.62-33.31-.17-66.63-.29-99.94-.17q-64,.23-127.93.9c-3.57,0-4.85-1.1-4.35-4.64,1-6.75,1.88-13.51,2.52-20.29.35-3.62,2.56-3.67,5.24-3.66q39,.11,78,.09c2.53,0,5.06-.85,7.59-1.31-1.13-2.44-2.13-5-3.42-7.3A67.29,67.29,0,0,0,938.53,33.09Z"/><path class="cls-1" d="M311.23,43.45c-1,9.83-1.87,18.9-3.12,27.91-.18,1.31-2.22,3-3.68,3.34-2.19.57-4.63.14-7,.14H101.08c-1.33,0-2.67-.06-4,0-3.58.07-4.47-1.26-3.66-5A119.83,119.83,0,0,0,96.35,50.2c.24-4.89,1.55-6.55,6.66-6.53q60.72.22,121.43-.07c27.65-.1,55.3-.38,82.95-.54A33.76,33.76,0,0,1,311.23,43.45Z"/><path class="cls-1" d="M614.06,74.85c1.29-10.16,2.31-19.22,3.75-28.21.2-1.22,2.54-3,3.89-3,54.49-.09,109,0,163.47,0,13.66,0,27.33-.24,41-.61,4.21-.11,5.75,1.11,5.06,5.46C830,56,829.05,63.63,828.36,71.23c-.33,3.69-2.42,3.67-5.13,3.66-29.16-.12-58.32-.25-87.48-.24q-57.74,0-115.48.2Z"/><path class="cls-1" d="M194.25,121.13h93c5.36,0,5.51.56,4.48,5.78a154.79,154.79,0,0,0-2.83,19.72c-.3,4.66-2.09,5.7-6.48,5.7q-89.73-.11-179.45.11c-11.83,0-11.86.12-10.64-11.49.55-5.29,1-10.62,2-15.84.26-1.41,2.08-3.11,3.55-3.59,2-.65,4.28-.28,6.44-.28h90Z"/><path class="cls-1" d="M713.62,121c31,0,61.94.06,92.91-.07,4,0,4.85,1.17,4.14,5a157.68,157.68,0,0,0-2.8,20.23c-.29,5.21-2.53,6.12-7.16,6.1-29.14-.13-58.28,0-87.41,0q-47.2.06-94.41.06c-6.92,0-6.84,0-5.89-6.59s1.91-13.47,2.44-20.24c.32-4.09,2.66-4.25,5.77-4.24q46.21.07,92.41,0Z"/><path class="cls-1" d="M1052.74,280.61c-2.08,15.83-4.21,31.66-6.18,47.51-.36,2.91-1.59,4.16-4.47,4a60.85,60.85,0,0,1-6.49-.2c-3.08-.51-8.71-1.41-8.71-2.15,0-5.21-1.91-11,2.66-15.51a6.29,6.29,0,0,0,1.67-3.35c.91-6,1.71-12.08,2.34-18.15a3.25,3.25,0,0,0-1.65-2.49,11.45,11.45,0,0,0-3.92-.52c-10.21-.58-10.53-.3-12,9.76-1.26,8.73-2.61,17.44-3.79,26.18-.63,4.62-2.41,6.78-7.72,6.57-12.64-.49-25.31-.19-38-.24-5.19,0-5.61-.74-4.93-5.88,1.7-12.85,3.23-25.72,4.79-38.59.5-4.11.62-8.28,1.41-12.32.27-1.35,2.08-2.41,3.24-3.54.18-.19.64-.1,1-.14,15.7-1.88,16.07-1.5,13.8,13.93-1.17,7.89-2.25,15.8-3.48,23.68-.66,4.28.64,6.09,5.3,5.76,8.23-.57,7.94-.4,8.85-8.8,1.16-10.56,2.78-21.08,4.51-31.57.19-1.17,2.43-2.84,3.73-2.85q22.49-.29,45,.06c1.07,0,2.66,2,3,3.37.46,1.67-.11,3.62-.23,5.45Z"/><path class="cls-1" d="M964.44,448.47c3.71.18,6.67.28,9.62.47s4.15-1,4.52-3.93c1.32-10.71,3.06-21.36,4.24-32.08.46-4.2,2-5.74,6.26-5.66q20.48.38,40.95.22c4.62,0,5.7,1.88,5.14,6.08-2.19,16.49-4.24,33-6.29,49.49-.34,2.73-1.55,4.32-4.45,4.28-4.16-.06-8.32-.14-12.48-.16-2.82,0-4.12-1.47-3.48-4.11,1.34-5.56.57-11.17,4.28-16.8,3.1-4.71,2-12.2,2.64-18.48.06-.57-.84-1.75-1.36-1.78a130.7,130.7,0,0,0-13.42-.32c-.73,0-1.8,2.14-2,3.39q-2.55,16.77-4.79,33.57c-.4,3-1.55,4.41-4.78,4.37q-20.47-.25-40.95-.16c-3.91,0-5-.9-4.38-5.27,2.42-16.43,4.4-32.93,6.16-49.45.43-4.1,1.84-5.64,5.82-5.24,2.31.23,4.66.13,7,.2,6.4.18,6.76,1,5.8,7.94C967,425.88,965.84,436.77,964.44,448.47Z"/><path class="cls-1" d="M560.26,327.63c6.83-17.23,13.43-33.85,20-50.46.18-.46.64-.95.57-1.36-1.23-8.15,4.39-6.85,9.24-6.85,8.65,0,17.3-.22,26-.23,5,0,5.52,1.06,3.52,5.65-1.33,3-2.57,6.09-3.75,9.18-1.38,3.64-.71,5.5,3.86,5.4,11.48-.24,23,0,34.45-.11,3.82,0,5.54.87,4.7,5.19a150.59,150.59,0,0,0-2.16,16.81c-.26,3.2-1.43,4.26-4.63,4.23-14.31-.15-28.63.06-42.93-.2-4.13-.07-6.63,1-7.73,5.13-1.33,5.07-4.32,7.31-10.09,7.13-9.45-.3-18.94.52-28.42.83A16.24,16.24,0,0,1,560.26,327.63Z"/><path class="cls-1" d="M47.09,556c5.29.72,9.08,1.58,12.88,1.69,8.83.26,17.68-.06,26.49.31,4.53.19,7-1,7.09-5.82a65,65,0,0,1,1.18-7.47H50.05c1.29-9.5,2.42-17.85,3.54-26.2.51-3.79.72-7.65,1.65-11.33.36-1.42,2.34-3.45,3.6-3.47,20.33-.25,40.66-.23,61-.27,2.89,0,4.27.92,3.5,4.26-.87,3.71-.93,7.61-1.77,11.33-.29,1.26-1.84,3.14-2.88,3.19-6.43.29-12.87.15-19.88.15,2.11-7.08-1.47-7.57-6.38-7.06-3.8.39-7.73-.16-11.45.53a6.68,6.68,0,0,0-4.44,4C73.35,533,73.47,533.11,87,533.17q13.5.06,27-.15c3.84-.06,5.6,1.19,4.86,5.33-1.53,8.51-2.85,17.06-4.25,25.6-.85,5.18-3.88,8.31-8.91,8.36q-28.74.29-57.49.2c-1,0-3-1.23-3-1.74C45.69,565.5,46.5,560.27,47.09,556Z"/><path class="cls-1" d="M579.93,522.39c2.07-6.47-1.13-7.06-5.42-6.64-2,.19-4,.11-6,.16-11,.27-11,.27-12.82,11.23-.62,3.75.08,6,4.75,5.87,11.16-.27,22.33,0,33.49-.23,4.8-.11,6.15,1.67,5.48,6.25-1.11,7.56-1.77,15.19-2.74,22.78-1,7.74-3.8,10.18-11.42,10.23-18,.13-36,.18-54,.43-3.24,0-4.75-.78-4.19-4.23.68-4.22,1.22-8.47,1.83-12.79,13.69,4.08,27.19,1.87,40.51,2.53,1.17,0,3.2-1.67,3.54-2.92,2.87-10.58,2.78-10.58-8-10.59-9.67,0-19.33-.14-29-.08-3.48,0-4.65-1.1-4.09-4.79,1.66-10.84,3.06-21.73,4.34-32.62.36-3.08,1.82-3.84,4.59-3.83q29.23.18,58.48.18c4.21,0,6.06,1.23,4.32,5.6a15.07,15.07,0,0,0-.82,3.4c-1.48,10.18-1.47,10.17-11.93,10.07C587.44,522.36,584,522.39,579.93,522.39Z"/><path class="cls-1" d="M389.74,481.44c.84-4.22,1.22-7.48,2.14-10.57,6.77-22.77,13.7-45.48,20.41-68.26.88-3,2.38-4,5.29-3.95,9.5.11,19,.07,28.49.08,3.19,0,5.08.54,3.77,4.67-4.65,14.74-9,29.55-13.4,44.37-2.91,9.89-5.49,19.87-8.48,29.73-.47,1.53-2.34,3.72-3.61,3.76C413.08,481.56,401.8,481.44,389.74,481.44Z"/><path class="cls-1" d="M129.12,268.41a66,66,0,0,1-6.48,2q-30.14,5.78-60.3,11.41c-12.43,2.31-24.91,4.36-37.35,6.64-7,1.28-14,2.82-21,4.15-1.19.23-3,.44-3.55-.18s-.5-2.51-.13-3.64q11.16-33.28,22.48-66.52c4.35-12.71,8.91-25.35,13.41-38a15.84,15.84,0,0,1,1.95-2.55c0,3.21.19,5.1,0,6.94q-3.3,27.49-6.74,54.95c-.69,5.45-1.56,10.88-2.56,16.27-.67,3.57.66,4.86,4.16,4.89q44.49.39,89,1a61.21,61.21,0,0,1,7.08.91Z"/><path class="cls-1" d="M1109.48,106.67c.36-4.82.64-9.65,1.09-14.47,2-20.86,3.92-41.73,6-62.58.38-3.83-2-4.1-4.57-4.26-9-.58-18-1-26.91-1.62q-28.39-2-56.76-4.3a22,22,0,0,1-4.46-1.26c0-.54,0-1.09,0-1.63,3.47-.62,6.93-1.3,10.41-1.83C1052.54,12,1070.75,9,1089,6.56c18-2.42,36-4.35,54-6.5,4-.48,3.6,1.93,2.78,4.38-2.66,8-5.48,16-8.13,24-4.57,13.89-9,27.82-13.6,41.69-3.83,11.49-7.85,22.91-11.82,34.35a13.61,13.61,0,0,1-1.43,2.39Z"/><path class="cls-1" d="M889.9,558c-1.21,4.8-1.94,8.62-3.25,12.24-.32.88-2.53,1.5-3.88,1.51-16.82.15-33.65.16-50.47.24-2.82,0-4.55-1-4.22-4.1,1.53-14.36,2.94-28.74,4.86-43.06.18-1.35,3.6-3.2,5.55-3.24,13.32-.31,26.64-.18,40-.21,3.83,0,7.67.06,11.49-.19s4.66,1.41,4.09,4.79c-1.15,6.89-2.3,13.79-3.13,20.72-.41,3.46-2.08,4.4-5.27,4.38-9.16-.06-18.33.08-27.49.16-3,0-5.67.58-5.95,4.46-.23,3.27.83,5.13,4.39,5.07,8.66-.15,17.32-.12,26-.44C884.57,560.3,886.54,559.15,889.9,558Zm-30-17.32,1-1c1.31-.14,2.62-.34,3.94-.4,3.1-.13,4.22-2.31,3.66-4.68-.26-1.1-2.69-1.86-4.26-2.41a10.5,10.5,0,0,0-3.46-.08c-2.77,0-6,.18-5.31,3.92C855.78,537.85,858.35,539.19,859.89,540.72Z"/><path class="cls-1" d="M186.93,571.49c-1.94,0-4.52,0-7.09,0q-21.21.32-42.42.65c-7.29.1-10.28-3.52-8.91-10.76.9-4.73,2.05-9.42,2.71-14.19.43-3.09,1.79-4.3,4.85-4.34,8.15-.1,16.3-.25,24.44-.69,1.67-.09,4.11-1.17,4.69-2.46.75-1.67.43-5.6-.22-5.79-2.37-.68-6.29-1.26-7.41,0-3.36,3.88-7.41,3.07-11.42,3.18a75.29,75.29,0,0,1-10-.2c-1.14-.12-3.13-1.61-3.05-2.27A73.31,73.31,0,0,1,135.48,523c.23-.82,2.08-1.66,3.19-1.66,16,0,32,.07,47.92.13,3,0,4.21,1.39,3.78,4.4-1.6,11.35-3.37,22.68-4.59,34.07C185.39,563.63,186.49,567.47,186.93,571.49ZM155.45,561c5.84.68,6.71-2.1,7.11-5.35.44-3.43-2.05-3.19-4.2-3.32-3.7-.23-5.32,2-5,5.23C153.45,559.11,155.13,560.52,155.45,561Z"/><path class="cls-1" d="M446,571.48c-3.68,0-6.62,0-9.57,0-13.81.17-27.62.45-41.43.51-7.33,0-9.42-2.78-8-10.06.92-4.73,1.94-9.46,2.62-14.23.52-3.58,2.1-5.25,5.87-5.2,7.65.11,15.32.11,23-.23,1.76-.08,4.24-1.33,5-2.76s-.09-4-.24-6c-3,.26-6.87-.59-8.92,1-6.82,5.15-14,1.81-21.05,2-.36,0-1.1-.64-1.07-.89.65-4.37,1.1-8.81,2.35-13,.28-.93,3.44-1.42,5.28-1.42,14.31,0,28.62.22,42.94.2,4.51,0,6.33,1.44,5.47,6.25-1.88,10.62-3.5,21.29-5,32-.3,2.12.42,4.43.92,6.59A44.29,44.29,0,0,0,446,571.48Zm-32.75-10.54c5.41.37,7.16-1.78,7.56-5.42.35-3.26-1.95-3.25-4.14-3.38-3.91-.23-5.39,2.26-5.36,5.51C411.29,559,412.84,560.37,413.21,560.94Z"/><path class="cls-1" d="M202.79,521.87a27.32,27.32,0,0,1,4.48-.59c16.64-.1,33.28-.18,49.91-.14,6.43,0,6.29.29,5.32,6.56-1.94,12.47-3.73,25-5.18,37.49-.56,4.85-2.1,7.34-7.4,6.83a84.44,84.44,0,0,0-11.47,0c-3.72.17-5-1.16-4.48-5q2.19-14.79,3.76-29.68c.17-1.62-.78-4.54-1.86-4.9-4.77-1.6-9.19,0-9.83,3.28-2,10.42-4.12,20.85-5.69,31.35-.57,3.8-1.93,5.21-5.66,5.06-4.65-.2-9.31-.1-14-.06-3.08,0-4.17-1.44-3.7-4.4,1.94-12.13,3.93-24.26,5.71-36.41C203.13,528.48,202.79,525.61,202.79,521.87Z"/><path class="cls-1" d="M681.57,521.83a41.55,41.55,0,0,1,5.39-.72c17-.05,33.95,0,50.93-.08,4,0,5.88,1.19,5.17,5.55-1.86,11.46-3.43,23-5.29,34.44-1.76,10.83-1.86,10.82-13.06,10.91-11.36.09-11.09.14-9.15-11.15,1.46-8.51,2.19-17.14,3-25.75.09-1-1.46-2.87-2.5-3.08-7.51-1.51-9.55-.19-11,7.56-1.6,8.82-3.13,17.69-4.06,26.61-.5,4.79-2.37,6.29-7,5.92a87,87,0,0,0-12,.15c-3.92.22-5.5-1.06-4.77-5.23,2.31-13.06,4.49-26.15,6.44-39.27C684,526.07,682.5,524.2,681.57,521.83Z"/><path class="cls-1" d="M460.27,522a44.35,44.35,0,0,1,5-.59c16.32-.18,32.63-.39,49-.41,6.65,0,7.39,1,6.47,7.31-1.9,13-4,26-5.76,39-.4,2.91-1.56,4.13-4.37,4.22q-7.23.24-14.47.66c-3.43.2-4.24-1.29-3.79-4.56,1.38-10.06,2.53-20.14,3.67-30.23.25-2.14,1.31-5.4-2.42-5.19-3.49.19-8.65-2.46-9.84,3.65-2,10.29-3.91,20.6-5.39,31-.53,3.71-1.66,5.33-5.52,5.17-4.82-.21-9.66-.15-14.48.07-3.31.15-4.15-1.38-3.67-4.25,2.19-13.26,4.44-26.51,6.5-39.79C461.4,526.29,460.66,524.47,460.27,522Z"/><path class="cls-1" d="M1026.75,474.47c-.6,6.53-.79,11.84-1.75,17-.3,1.64-2.38,3.49-4.09,4.23-8.84,3.8-17.82,7.25-26.74,10.86-1.64.67-3.2,1.54-6.42,3.1,6.25,3.32,11.24,6,16.25,8.62,1.18.61,2.45,1.05,3.62,1.67,13.7,7.22,13.66,7.22,11.27,22.59-.58,3.74-2.33,3.37-4.81,1.87-12.51-7.55-24.94-15.26-37.64-22.48a27.79,27.79,0,0,0-11.65-3.39c-8.13-.52-16.31-.27-24.47-.13-3.43.06-4.39-1.32-3.85-4.55.63-3.76.61-7.68,1.61-11.32a6.07,6.07,0,0,1,4.26-3.47,59.67,59.67,0,0,1,12.95-.31,55.1,55.1,0,0,0,31.12-6.46c10.58-5.49,21.4-10.53,32.19-15.61C1020.77,475.68,1023.28,475.39,1026.75,474.47Z"/><path class="cls-1" d="M667,571.43c-2.23,0-5,0-7.75,0-13.48.22-27,.48-40.43.71-8.67.15-10.86-2.2-9.57-10.68.65-4.26,2.06-8.42,2.56-12.69.61-5.15,3.51-6.61,8.16-6.45,6.82.23,13.64.37,20.46.35,4.43,0,6.88-3.39,5.88-7.68-.5-2.14-6.69-3.57-8.61-1.19-4,4.9-8.94,3.45-13.71,3.33-12.52-.32-11.66.48-8.21-11.56.87-3,2.1-4,5.11-3.94q22,.14,43.93-.1c4.32,0,6,1.35,5.25,5.94-1.75,10.47-3.39,21-4.51,31.51C665.16,562.75,666.4,566.68,667,571.43Zm-31.28-10.68c5.4.55,6.92-1.67,7.36-5.08s-2-3.21-4.17-3.47c-4.09-.5-5.45,2-5.22,5.38C633.79,559,635.41,560.29,635.72,560.75Z"/><path class="cls-1" d="M1021.19,379h-6c-18.32,0-36.63-.09-55-.08-4,0-7.56,0-4.59-5.6a4.38,4.38,0,0,0,.2-1.48c1.5-11.68,1.5-11.64,13.41-11.58,16.32.07,32.64,0,49,.19,3.85.05,5.42-1.29,5.62-5.08a104.23,104.23,0,0,1,1.44-12.32c.2-1.12,1.52-2.08,2.45-3,.28-.29,1-.2,1.44-.28,14.7-2.17,15.38-1.36,13.37,13.26s-3.72,29-5.38,43.49c-.34,2.92-1.59,4.19-4.37,4.26h-.5c-13.3.69-14.12-.19-12.36-13.34C1020.28,384.87,1020.7,382.3,1021.19,379Z"/><path class="cls-1" d="M749.29,504.23c8,0,15.29-.22,22.53.19,1.39.08,3,2.45,3.87,4.11,2.54,4.86,4.74,9.91,7.12,14.86.83,1.72,1.82,3.37,3.19,5.91,5.79-8,11-15.2,16.21-22.38.65-.9,1.42-2.41,2.16-2.43,7.87-.18,15.74-.11,24.68-.11-1.3,1.81-2,3-2.9,4-9.82,10.83-19.73,21.59-29.46,32.51a11.66,11.66,0,0,0-2.59,5.64c-1.17,6.89-2.13,13.83-2.9,20.78-.39,3.56-2.1,4.9-5.55,4.79-4.67-.16-9.34-.14-14-.07-3.43.06-4.85-1.12-4.12-4.82,1.33-6.84,2.87-13.72,3.22-20.65.17-3.49-1.55-7.4-3.33-10.62-5.39-9.76-11.24-19.26-16.9-28.87C750.13,506.4,749.89,505.64,749.29,504.23Z"/><path class="cls-1" d="M306.9,504c10.83,0,21.65-.05,32.48,0,2.38,0,5.47-.34,4.93,3.7-.44,3.37.85,7.85-5.07,7.81-5.49,0-11,.26-16.48.21-3.24,0-4.79,1.11-5.15,4.52-.94,8.92-2.09,17.83-3.36,26.71-1,7.24-2.18,14.47-3.68,21.62-.26,1.26-2.42,2.88-3.81,3-5.63.47-11.31.44-17,.54-2.8,0-3.55-1-3-4,2.59-15.22,4.9-30.5,7.17-45.78.85-5.71.32-6.15-5.7-6.23q-7.75-.11-15.49-.1c-3,0-4.47-.54-3.89-4.36,1.26-8.26-.15-7.86,9.57-8,9.49-.1,19,0,28.48,0Z"/><path class="cls-1" d="M435.07,387.28c-5,0-10-.09-15,0-2.91.07-4.12-1.05-4.34-4.05-1-14.09-2.13-28.19-3.43-42.26-.35-3.79.45-5.59,4.65-5.49,9.66.22,19.32.17,29,.15,3.07,0,5.17.81,5.4,4.35q1.37,20.92,2.89,41.85c.3,3.94-.77,5.8-5.18,5.42-4.63-.4-9.32-.09-14-.09Z"/><path class="cls-1" d="M439.63,274.42c5,0,10,.15,15-.05,3.41-.13,4.83,1.22,4.93,4.59.21,7.14.49,14.29,1,21.42.42,6.29,1.09,12.57,1.77,18.84.35,3.22-.78,4.51-4.13,4.47-10-.12-20-.07-29.94,0-3.54,0-4.91-1.35-5.16-5-.9-13.25-2-26.49-3.29-39.71-.32-3.3.7-4.73,3.93-4.72h16Z"/><path class="cls-1" d="M707.58,268.27c10.8,0,22.06-.2,33.31.05,11.64.27,11.09-2.31,13.33,11.14,1,5.85,2.22,11.66,3.44,18a19.47,19.47,0,0,1-3.73.76c-11.46,0-22.93-.11-34.39-.06-3.55,0-5.13-1.15-5.85-5C712.18,285.2,709.86,277.36,707.58,268.27Z"/><path class="cls-1" d="M355.52,521.76c7.08,0,14.16-.12,21.23.17.83,0,2.37,2.55,2.2,3.71-2,13.8-4.48,27.54-6.39,41.35-.52,3.72-2,4.82-5.39,4.78-4.65,0-9.31.19-14,.26-2.68.05-3.88-.93-3.4-4,1.89-12,3.61-24,5.3-36,.4-2.89.4-5.84.59-8.77Z"/><path class="cls-1" d="M368.16,517h-1c-9.41,0-9.32.05-7.92-8.92.44-2.8,1.57-4.08,4.48-4,4.8.13,9.61,0,14.41,0,3.07,0,4.08,1.36,3.32,4.44C379.4,516.92,379.47,516.94,368.16,517Z"/></g></g></svg>